<svg xmlns="http://www.w3.org/2000/svg" xmlns:xlink="http://www.w3.org/1999/xlink" aria-hidden="true" role="img" class="iconify iconify--ph" width="32" height="32" preserveAspectRatio="xMidYMid meet" viewBox="0 0 256 256"><path d="M229.816 157.481c-.055.059-.102.12-.159.176l-48 48a8 8 0 0 1-11.314-11.314L204.686 160H128A104.118 104.118 0 0 1 24 56a8 8 0 0 1 16 0a88.1 88.1 0 0 0 88 88h76.686l-34.343-34.343a8 8 0 0 1 11.314-11.314l48 48c.057.056.104.117.159.176c.125.132.251.265.367.406c.091.11.171.227.256.342c.07.095.144.188.21.286c.085.127.16.258.236.388c.056.095.115.186.167.284c.07.129.129.261.19.393c.05.106.102.21.147.317c.052.127.095.255.14.384c.043.119.088.235.125.355c.04.13.068.26.1.39c.031.124.066.245.09.37c.03.151.049.304.07.457c.015.106.035.21.046.317a8.043 8.043 0 0 1 0 1.584c-.01.107-.031.211-.046.317c-.021.153-.04.306-.07.457c-.024.125-.059.247-.09.37c-.032.13-.06.26-.1.39c-.037.12-.082.237-.124.355c-.046.129-.089.258-.14.384c-.046.108-.099.211-.148.317c-.061.132-.12.265-.19.393c-.052.098-.111.19-.167.284c-.077.13-.15.261-.236.388c-.066.098-.14.191-.21.286c-.085.115-.165.231-.256.342c-.116.141-.242.274-.367.406z" fill="#290063"></path></svg>