<svg xmlns="http://www.w3.org/2000/svg" xmlns:xlink="http://www.w3.org/1999/xlink" aria-hidden="true" role="img" class="iconify iconify--fluent" width="32" height="32" preserveAspectRatio="xMidYMid meet" viewBox="0 0 24 24"><g fill="none"><path d="M2 7.75A2.75 2.75 0 0 1 4.75 5h14.5A2.75 2.75 0 0 1 22 7.75V9.5H2V7.75z" fill="white"></path><path d="M2 11h20v5.25A2.75 2.75 0 0 1 19.25 19H4.75A2.75 2.75 0 0 1 2 16.25V11zm13.75 3.5a.75.75 0 0 0 0 1.5h2.5a.75.75 0 0 0 0-1.5h-2.5z" fill="white"></path></g></svg>